<svg xmlns="http://www.w3.org/2000/svg" viewBox="0 0 1280 360" role="img" aria-labelledby="title desc">
<title id="title">RustScenic validation summary</title>
<desc id="desc">One install, five runtime dependencies, no Java dask or CUDA, and 100k to 200k synthetic multiome runs below 8 GB peak RSS.</desc>
<rect width="1280" height="360" fill="#f7f8f5"/>
<rect x="0" y="0" width="1280" height="8" fill="#1f7a6d"/>
<text x="54" y="58" font-family="Arial, sans-serif" font-size="34" font-weight="700" fill="#202124">RustScenic: SCENIC+ compute path in one package</text>
<text x="54" y="93" font-family="Arial, sans-serif" font-size="18" fill="#4b5563">Evidence-backed install, memory and real-data validation summary. Full commands and caveats live in site_docs/benchmarks.md.</text>
<rect x="54" y="130" width="220" height="150" rx="10" fill="#ffffff" stroke="#d8ded8"/>
<rect x="54" y="130" width="220" height="8" rx="4" fill="#1f7a6d"/>
<text x="72" y="186" font-family="Arial, sans-serif" font-size="34" font-weight="700" fill="#202124">pip install</text>
<text x="72" y="218" font-family="Arial, sans-serif" font-size="20" font-weight="700" fill="#1f7a6d">rustscenic</text>
<text x="72" y="250" font-family="Arial, sans-serif" font-size="13" fill="#4b5563">Single install path</text>
<rect x="296" y="130" width="220" height="150" rx="10" fill="#ffffff" stroke="#d8ded8"/>
<rect x="296" y="130" width="220" height="8" rx="4" fill="#2c5aa0"/>
<text x="314" y="186" font-family="Arial, sans-serif" font-size="34" font-weight="700" fill="#202124">5</text>
<text x="314" y="218" font-family="Arial, sans-serif" font-size="20" font-weight="700" fill="#2c5aa0">runtime deps</text>
<text x="314" y="250" font-family="Arial, sans-serif" font-size="13" fill="#4b5563">numpy, pandas, scipy +2</text>
<rect x="538" y="130" width="220" height="150" rx="10" fill="#ffffff" stroke="#d8ded8"/>
<rect x="538" y="130" width="220" height="8" rx="4" fill="#a85b18"/>
<text x="556" y="186" font-family="Arial, sans-serif" font-size="34" font-weight="700" fill="#202124">No</text>
<text x="556" y="218" font-family="Arial, sans-serif" font-size="20" font-weight="700" fill="#a85b18">Java / dask / CUDA</text>
<text x="556" y="250" font-family="Arial, sans-serif" font-size="13" fill="#4b5563">Modern Python plus CPU</text>
<rect x="780" y="130" width="220" height="150" rx="10" fill="#ffffff" stroke="#d8ded8"/>
<rect x="780" y="130" width="220" height="8" rx="4" fill="#6b5b95"/>
<text x="798" y="186" font-family="Arial, sans-serif" font-size="34" font-weight="700" fill="#202124">200k</text>
<text x="798" y="218" font-family="Arial, sans-serif" font-size="20" font-weight="700" fill="#6b5b95">synthetic cells</text>
<text x="798" y="250" font-family="Arial, sans-serif" font-size="13" fill="#4b5563">Peak memory 7.44 GB</text>
<rect x="1022" y="130" width="220" height="150" rx="10" fill="#ffffff" stroke="#d8ded8"/>
<rect x="1022" y="130" width="220" height="8" rx="4" fill="#546a2f"/>
<text x="1040" y="186" font-family="Arial, sans-serif" font-size="34" font-weight="700" fill="#202124">3</text>
<text x="1040" y="218" font-family="Arial, sans-serif" font-size="20" font-weight="700" fill="#546a2f">real multiome runs</text>
<text x="1040" y="250" font-family="Arial, sans-serif" font-size="13" fill="#4b5563">All 7 stages non-empty</text>
<text x="54" y="325" font-family="Arial, sans-serif" font-size="13" fill="#5f6368">Scale rows are synthetic workload proofs. Legacy SCENIC+ memory is a reported baseline, not a controlled head-to-head run.</text>
</svg>